<svg xmlns="http://www.w3.org/2000/svg" width="32" height="32" viewBox="0 0 32 32">
  <defs>
    <style>
      .cls-1 {
        fill: #f68500;
        fill-rule: evenodd;
      }
    </style>
  </defs>
  <path id="Shape_23_copy" data-name="Shape 23 copy" class="cls-1" d="M825,600.188c0.044,3.665,1.016,7.349,3.538,9.863a17.42,17.42,0,0,0,8.693,4.319,25.584,25.584,0,0,0,10.674.081,24.667,24.667,0,0,0,2.548-.667,1.157,1.157,0,0,0,.7-1.373c-0.01-.04-0.023-0.079-0.036-0.117a17.927,17.927,0,0,0,5.829-14.541,17.134,17.134,0,0,0-3.38-8.975,14.634,14.634,0,0,0-8.174-5.112,18.269,18.269,0,0,0-10.512.214,13.958,13.958,0,0,0-7.546,6.3A20.088,20.088,0,0,0,825,600.188Zm3.1-6.782a12.126,12.126,0,0,1,5.513-6.566,14.782,14.782,0,0,1,9-1.451,18.011,18.011,0,0,1,4.46,1.145,12.424,12.424,0,0,1,3.654,2.264,13.552,13.552,0,0,1,3.9,7.059,14.64,14.64,0,0,1,.332,4.241,12.322,12.322,0,0,1-.281,2.032,16.791,16.791,0,0,1-.6,2.129,15.982,15.982,0,0,1-4.516,6.57,14.856,14.856,0,0,1-1.69,1.23,1.166,1.166,0,0,0-.2.165,23.743,23.743,0,0,1-7.45.395,19.668,19.668,0,0,1-8.469-2.734,9.752,9.752,0,0,1-2.964-2.817,11.3,11.3,0,0,1-1.6-4.5A19.04,19.04,0,0,1,828.1,593.406Zm5.641,6.457c0.724,0.538,1.454,1.059,2.181,1.589l4.552,3.314c0.784,0.571,1.44-1.116.686-1.876l-3.691-3.72,12.476,0.805c0.875,0.057.873-2.116,0-2.172l-13.367-.863,0.642-.29,3.857-1.747c0.84-.38.483-2.477-0.362-2.094l-4.648,2.1c-0.728.33-1.481,0.6-2.2,1a2.153,2.153,0,0,0-1.122,1.872A2.326,2.326,0,0,0,833.743,599.863Z" transform="translate(-825 -583)"/>
</svg>
