<svg xmlns="http://www.w3.org/2000/svg" width="386.03" height="569" viewBox="0 0 386.03 569">
  <defs>
    <style>
      .cls-1 {
        fill: #ffc438;
        fill-rule: evenodd;
      }
    </style>
  </defs>
  <path id="Shape_19_copy_16" data-name="Shape 19 copy 16" class="cls-1" d="M1200.62,17236.7c-151.59.6-176.68-12.4-176.68-75.2,0-20.9,4.66-113.4.59-157.5-4.41-47.8-1.06-177.7-2.64-214.6-2.35-54.5-10.36-95,7-110.6,29.79-26.6,80.49,9.2,189.1,9,98.98-.1,151.8,1.9,166.48,28.1,10.27,18.3,7.2,24.9,8.23,69.7,1.01,43.8,8.48,169.7,6.52,213.6-1.99,44.4,4.78,130.3,4.78,165.1,0,34.9-21.48,52-39.03,62.8C1347.41,17238,1261.49,17236.4,1200.62,17236.7Z" transform="translate(-1017.97 -16669)"/>
</svg>
