<svg xmlns="http://www.w3.org/2000/svg" width="1920" height="118.9" viewBox="0 0 1920 118.9">
  <defs>
    <style>
      .cls-1 {
        fill: #fff;
        fill-rule: evenodd;
      }
    </style>
  </defs>
  <path id="Rectangle_9_copy_8" data-name="Rectangle 9 copy 8" class="cls-1" d="M1925.56,16602s30.04,51.3-184.72,51.3c-91.03,0-77.27-51.7-235.01-56.1-103.08-2.9-69.64,28.9-180.81,21.9-78.44-4.9-206.54-37.1-282.53-35.1-99.81,2.6-234.988,3.9-338.989,17.5-77.143,10.1-128.5,41.4-183.571,17-23.75-10.6-85.179-11.8-134.619-6.1-65.2,7.5-105.886,34.6-135.263,40.8-269.166,56.7-252.859-58.1-252.859-58.1V16550H1926.44Zm-675.51,139.6" transform="translate(0 -16550)"/>
</svg>
