<svg id="Layer_1" data-name="Layer 1" xmlns="http://www.w3.org/2000/svg" viewBox="0 0 260 58"><defs><style>.cls-1{fill-rule:evenodd;clip-rule:evenodd;fill:url(#linear-gradient);}</style><linearGradient id="linear-gradient" x1="0" y1="58" x2="0" gradientUnits="userSpaceOnUse"><stop offset="0" stop-color="#ffc439"/><stop offset="1" stop-color="#ffe33a"/></linearGradient></defs><title>кнопка</title><path class="cls-1" d="M.07 29.74c.78-9.54 5.4-16.29 13.92-21 8.76-4.84 20.14-4.2 30-4.61q32.86-1.39 64.12-2.32C149.35.56 185.2-.91 221.02.74c4.47.21 8.58.73 13 1 2.36.14 7 2.44 8.17 4.56a20.16 20.16 0 0 1 11 5.54c6 5.7 6.75 11.63 6.81 19.9.14 21.56-19.43 26.65-37 26-8.82-.32-17.95.13-27 0-9.25-.13-56.73-3-92-3-35.94 0-59.59 2-60 2-9.74-.14-20.62.88-30-3-9.06-3.73-14.69-14.6-13.93-24z"/></svg>