<svg id="Слой_1" xmlns="http://www.w3.org/2000/svg" viewBox="0 0 294.5 69.8"><style>.st0{fill-rule:evenodd;clip-rule:evenodd;fill:url(#SVGID_1_);}</style><linearGradient id="SVGID_1_" gradientUnits="userSpaceOnUse" x1="147.234" y1="69.766" x2="147.234"><stop offset="0" stop-color="#87C540"/><stop offset="1" stop-color="#B0D235"/></linearGradient><path class="st0" d="M294.4 37.3c-.9-11.1-7.3-20.9-16.9-26.3-9.9-5.6-21.7-6.6-32.9-7-24.9-1.1-49.1-2-72.8-2.7C125-.2 81.9-.6 41.2 1.3c-5.1.2-10.1.5-15.1.8-2.7.2-5.1 1.9-6.4 4.4-4.5.6-8.8 2.9-12.5 6.5C.3 19.6.5 30 0 39.7-1 62.1 20 70 41.3 69.8c10-.1 20.3 0 30.5-.2 10.6-.2 32.7-.4 43.6-.6 21.9-.3 33-1.6 56-1.9 23.8-.4 48 1.3 73 .9 11.1-.2 23.4 1.5 34-3 10.3-4.3 16.9-16.7 16-27.7z"/></svg>