<svg xmlns="http://www.w3.org/2000/svg" width="300" height="300" viewBox="0 0 300 300">
  <defs>
    <style>
      .cls-1 {
        fill: #fff;
        fill-rule: evenodd;
      }
    </style>
  </defs>
  <path id="Shape_17_copy_13" data-name="Shape 17 copy 13" class="cls-1" d="M92.987,2219.01V2519H393V2219.01H92.987Zm265.7,212.48a85.757,85.757,0,0,1-14.914,18.75,169.945,169.945,0,0,1-19.295,27.86c-11.022,12.89-29.914,17.8-45.135,11.44-40.947,14.87-87.116,6.46-121.17-21.46-17.512-14.35-29.55-34.48-37.1-55.58-7.849-21.94-8.618-45.54-4.784-68.32,7.441-44.2,43.717-87.48,89.021-95.5a125.319,125.319,0,0,1,12.455-1.56c22.32-8.7,46.348-7.49,68.536,1.7,1.37,0.43,2.731.89,4.077,1.4q7.079,1.68,14.156,3.37c13.014,3.11,25.01,7.15,35.343,16.05,14.084,12.14,18.738,31.49,21.156,49.58q0.39,0.93.757,1.89c2.908,7.54,4.179,15.98,4.759,24.36C374.889,2374.1,374.5,2404.67,358.682,2431.49Z" transform="translate(-93 -2219)"/>
</svg>
